<?xml version="1.0" standalone="no"?>
<!DOCTYPE svg PUBLIC "-//W3C//DTD SVG 20010904//EN"
 "http://www.w3.org/TR/2001/REC-SVG-20010904/DTD/svg10.dtd">
<svg version="1.0" xmlns="http://www.w3.org/2000/svg"
 width="250.000000pt" height="250.000000pt" viewBox="0 0 250.000000 250.000000"
 preserveAspectRatio="xMidYMid meet">
<metadata>
Created by potrace 1.11, written by Peter Selinger 2001-2013
</metadata>
<g transform="translate(0.000000,250.000000) scale(0.100000,-0.100000)"
fill="#000000" stroke="none">
<path d="M1264 2228 c-3 -4 -10 -6 -15 -3 -5 4 -9 2 -9 -4 0 -5 -9 -13 -21
-16 -11 -4 -18 -9 -15 -12 3 -4 1 -12 -4 -18 -15 -18 -49 -122 -43 -129 4 -3
1 -6 -6 -6 -7 0 -10 -4 -7 -8 3 -5 -1 -20 -9 -35 -8 -15 -11 -27 -8 -27 3 0 1
-6 -5 -12 -6 -7 -11 -16 -11 -21 -2 -22 -15 -64 -24 -74 -5 -7 -7 -13 -4 -13
4 0 -1 -19 -9 -42 -9 -24 -17 -47 -18 -53 -21 -86 -53 -136 -96 -150 -14 -5
-149 -9 -300 -10 -151 -1 -284 -4 -295 -8 -31 -11 -57 -55 -63 -103 -4 -42 -3
-46 49 -97 29 -28 55 -50 57 -48 2 1 14 -5 26 -15 12 -11 51 -39 86 -64 36
-24 72 -50 80 -57 8 -6 38 -29 67 -50 28 -21 64 -47 79 -58 15 -11 35 -38 45
-59 15 -35 16 -43 3 -85 -8 -25 -17 -53 -19 -61 -2 -8 -14 -47 -28 -87 -14
-40 -22 -74 -19 -77 3 -4 1 -6 -4 -6 -5 0 -11 -12 -12 -27 -1 -16 -6 -29 -12
-31 -5 -2 -6 -10 -3 -18 3 -8 -1 -14 -8 -14 -11 0 -11 -3 1 -10 8 -5 10 -10 4
-10 -9 0 -28 -44 -25 -57 0 -2 -8 -22 -17 -45 -21 -50 -20 -86 4 -128 16 -26
32 -37 85 -53 19 -6 94 28 124 56 11 10 48 36 82 59 35 23 63 45 63 50 0 4 7
8 15 8 8 0 15 5 15 10 0 6 5 10 10 10 6 0 16 5 23 10 45 38 65 53 94 71 18 11
33 25 33 30 0 5 3 8 8 7 4 -1 18 4 32 12 32 18 68 20 100 6 29 -12 163 -107
168 -118 2 -5 10 -8 18 -8 8 0 14 -4 14 -8 0 -4 12 -15 28 -24 15 -9 36 -24
47 -32 105 -83 183 -133 215 -137 37 -6 81 14 104 47 30 44 27 89 -11 189 -8
22 -16 47 -18 55 -2 8 -15 51 -30 95 -15 44 -28 85 -30 90 -1 6 -5 17 -8 25
-20 50 -47 147 -47 169 0 54 21 72 418 359 75 54 98 97 81 154 -10 37 -52 77
-83 80 -12 0 -140 2 -286 2 -343 2 -330 -3 -386 166 -10 30 -19 57 -19 60 -9
34 -19 67 -24 75 -3 6 -6 15 -7 20 -1 6 -21 68 -45 140 -40 123 -56 155 -76
155 -5 0 -15 6 -21 12 -15 15 -70 19 -78 6z"/>
</g>
</svg>
